<?xml version="1.0" encoding="utf-8"?>
<!-- Generator: Adobe Illustrator 21.0.0, SVG Export Plug-In . SVG Version: 6.00 Build 0)  -->
<svg version="1.1" id="Layer_1" xmlns="http://www.w3.org/2000/svg" xmlns:xlink="http://www.w3.org/1999/xlink" x="0px" y="0px"
	 viewBox="0 0 32 32" style="enable-background:new 0 0 32 32;" xml:space="preserve">
<style type="text/css">
	.st0{fill:#231F20;}
</style>
<path class="st0" d="M28.1,14.2c0-3-2.4-5.6-5.2-5.7c-0.7-2.3-2.8-4-5.3-4c-2.6,0-4.8,1.8-5.3,4.3c-0.5-0.2-1.1-0.3-1.7-0.3
	c-3,0-5.5,2.6-5.5,5.8S7.6,20,10.6,20h12C25.6,20,28.1,17.4,28.1,14.2z M6.1,14.2c0-2.6,2.1-4.8,4.5-4.8c0.6,0,1.3,0.1,1.8,0.4
	c0.1,0.1,0.3,0.1,0.5,0c0.1-0.1,0.2-0.2,0.2-0.4c0.3-2.3,2.2-4,4.4-4c2.1,0,4,1.5,4.4,3.6c0,0.2,0.2,0.4,0.5,0.4c0,0,0.1,0,0.1,0
	c2.4,0,4.5,2.2,4.5,4.8S25.1,19,22.6,19h-12C8.2,19,6.1,16.8,6.1,14.2z"/>
<path class="st0" d="M9.7,21.6c-0.2-0.2-0.5-0.2-0.7,0l-2.5,2.5c-0.2,0.2-0.2,0.5,0,0.7C6.6,24.9,6.8,25,6.9,25c0.1,0,0.3,0,0.4-0.1
	l2.5-2.5C9.9,22.2,9.9,21.8,9.7,21.6z"/>
<path class="st0" d="M13.7,21.6c-0.2-0.2-0.5-0.2-0.7,0l-2.5,2.5c-0.2,0.2-0.2,0.5,0,0.7c0.1,0.1,0.2,0.1,0.4,0.1
	c0.1,0,0.3,0,0.4-0.1l2.5-2.5C13.9,22.2,13.9,21.8,13.7,21.6z"/>
<path class="st0" d="M17.7,21.6c-0.2-0.2-0.5-0.2-0.7,0l-2.5,2.5c-0.2,0.2-0.2,0.5,0,0.7c0.1,0.1,0.2,0.1,0.4,0.1
	c0.1,0,0.3,0,0.4-0.1l2.5-2.5C17.9,22.2,17.9,21.8,17.7,21.6z"/>
<path class="st0" d="M21,21.6l-2.5,2.5c-0.2,0.2-0.2,0.5,0,0.7c0.1,0.1,0.2,0.1,0.4,0.1c0.1,0,0.3,0,0.4-0.1l2.5-2.5
	c0.2-0.2,0.2-0.5,0-0.7C21.5,21.5,21.2,21.5,21,21.6z"/>
<path class="st0" d="M17,25.6l-1,1c-0.2,0.2-0.2,0.5,0,0.7c0.1,0.1,0.2,0.1,0.4,0.1s0.3,0,0.4-0.1l1-1c0.2-0.2,0.2-0.5,0-0.7
	C17.5,25.5,17.2,25.5,17,25.6z"/>
<path class="st0" d="M13,25.6l-1,1c-0.2,0.2-0.2,0.5,0,0.7c0.1,0.1,0.2,0.1,0.4,0.1s0.3,0,0.4-0.1l1-1c0.2-0.2,0.2-0.5,0-0.7
	C13.5,25.5,13.2,25.5,13,25.6z"/>
<path class="st0" d="M9,25.6l-1,1c-0.2,0.2-0.2,0.5,0,0.7c0.1,0.1,0.2,0.1,0.4,0.1s0.3,0,0.4-0.1l1-1c0.2-0.2,0.2-0.5,0-0.7
	C9.5,25.5,9.2,25.5,9,25.6z"/>
<path class="st0" d="M5,25.6l-1,1c-0.2,0.2-0.2,0.5,0,0.7c0.1,0.1,0.2,0.1,0.4,0.1s0.3,0,0.4-0.1l1-1c0.2-0.2,0.2-0.5,0-0.7
	C5.5,25.5,5.2,25.5,5,25.6z"/>
</svg>
