<?xml version="1.0" encoding="utf-8"?>
<!-- Generator: Adobe Illustrator 21.0.0, SVG Export Plug-In . SVG Version: 6.00 Build 0)  -->
<svg version="1.1" id="Layer_1" xmlns="http://www.w3.org/2000/svg" xmlns:xlink="http://www.w3.org/1999/xlink" x="0px" y="0px"
	 viewBox="0 0 32 32" style="enable-background:new 0 0 32 32;" xml:space="preserve">
<style type="text/css">
	.st0{fill:#231F20;}
</style>
<path class="st0" d="M23.6,14.7c-0.7-2.3-2.8-4-5.3-4c-0.8,0-1.6,0.2-2.3,0.5c-0.2-1.3-0.8-2.5-1.8-3.5c-0.9-0.9-2-1.5-3.2-1.8
	c-0.2,0-0.3,0-0.5,0.1c-0.1,0.1-0.2,0.3-0.1,0.5c0.4,1.9-0.1,3.8-1.5,5.1c-1.4,1.4-3.3,1.9-5.1,1.5c-0.2,0-0.3,0-0.5,0.1
	c-0.1,0.1-0.2,0.3-0.1,0.5C3.5,15,4.1,16.2,4.9,17c0.4,0.4,0.9,0.7,1.4,1c-0.3,0.7-0.5,1.5-0.5,2.3c0,3.1,2.5,5.6,5.5,5.6h12
	c3,0,5.5-2.6,5.5-5.6C28.8,17.4,26.5,14.9,23.6,14.7z M5.6,16.3c-0.6-0.6-1-1.2-1.3-2c1.9,0.2,3.9-0.5,5.3-1.9
	c1.4-1.4,2.1-3.3,1.9-5.3c0.7,0.3,1.4,0.7,2,1.3c0.9,0.9,1.4,2.1,1.6,3.3c-1,0.8-1.8,1.9-2.1,3.2c-0.5-0.2-1.1-0.3-1.7-0.3
	c-1.8,0-3.5,1-4.5,2.5C6.4,16.9,6,16.7,5.6,16.3z M23.3,25h-12c-2.4,0-4.5-2.1-4.5-4.6s2.1-4.6,4.5-4.6c0.6,0,1.3,0.1,1.8,0.4
	c0.1,0.1,0.3,0.1,0.5,0c0.1-0.1,0.2-0.2,0.2-0.4c0.3-2.3,2.2-4,4.4-4c2.1,0,4,1.5,4.4,3.6c0,0.2,0.3,0.4,0.5,0.4c0.1,0,0.1,0,0.1,0
	c2.4,0,4.5,2.1,4.5,4.6S25.8,25,23.3,25z"/>
</svg>
