<?xml version="1.0" encoding="utf-8"?>
<!-- Generator: Adobe Illustrator 21.0.0, SVG Export Plug-In . SVG Version: 6.00 Build 0)  -->
<svg version="1.1" id="Layer_1" xmlns="http://www.w3.org/2000/svg" xmlns:xlink="http://www.w3.org/1999/xlink" x="0px" y="0px"
	 viewBox="0 0 32 32" style="enable-background:new 0 0 32 32;" xml:space="preserve">
<style type="text/css">
	.st0{fill:#231F20;}
</style>
<path class="st0" d="M5,17.8c0.3,0,0.5-0.2,0.5-0.5c0-2.6,2.1-4.8,4.5-4.8c0.6,0,1.3,0.1,1.8,0.4c0.1,0.1,0.3,0.1,0.5,0
	c0.1-0.1,0.2-0.2,0.2-0.4c0.3-2.3,2.2-4,4.4-4c2.1,0,4,1.5,4.4,3.6c0,0.2,0.3,0.4,0.5,0.4c0,0,0.1,0,0.1,0c2.4,0,4.5,2.2,4.5,4.8
	c0,0.3,0.2,0.5,0.5,0.5c0.3,0,0.5-0.2,0.5-0.5c0-3-2.4-5.6-5.2-5.7c-0.7-2.3-2.8-4-5.3-4c-2.6,0-4.8,1.8-5.3,4.3
	c-0.5-0.2-1.1-0.3-1.7-0.3c-3,0-5.5,2.6-5.5,5.8C4.5,17.5,4.7,17.8,5,17.8z"/>
<path class="st0" d="M5,20h22c0.3,0,0.5-0.2,0.5-0.5S27.3,19,27,19H5c-0.3,0-0.5,0.2-0.5,0.5S4.7,20,5,20z"/>
<path class="st0" d="M5,22h22c0.3,0,0.5-0.2,0.5-0.5S27.3,21,27,21H5c-0.3,0-0.5,0.2-0.5,0.5S4.7,22,5,22z"/>
<path class="st0" d="M5,24h22c0.3,0,0.5-0.2,0.5-0.5S27.3,23,27,23H5c-0.3,0-0.5,0.2-0.5,0.5S4.7,24,5,24z"/>
</svg>
