<?xml version="1.0" encoding="utf-8"?>
<!-- Generator: Adobe Illustrator 21.0.0, SVG Export Plug-In . SVG Version: 6.00 Build 0)  -->
<svg version="1.1" id="Layer_1" xmlns="http://www.w3.org/2000/svg" xmlns:xlink="http://www.w3.org/1999/xlink" x="0px" y="0px"
	 viewBox="0 0 32 32" style="enable-background:new 0 0 32 32;" xml:space="preserve">
<style type="text/css">
	.st0{fill:#231F20;}
</style>
<path class="st0" d="M9,25h12c3,0,5.5-2.6,5.5-5.6c0-0.4-0.1-0.9-0.2-1.3c1.8-0.5,3.2-2.1,3.2-4.1c0-2.2-1.7-4-3.9-4.2
	c-0.5-1.8-2.2-3-4.1-3c-2,0-3.6,1.3-4.1,3.2C17,9.8,16.5,9.8,16,9.8c-2.6,0-4.8,1.8-5.3,4.3c-0.5-0.2-1.1-0.3-1.7-0.3
	c-3,0-5.5,2.6-5.5,5.6S6,25,9,25z M21.5,7.8c1.5,0,2.9,1.1,3.2,2.6c0,0.2,0.3,0.4,0.6,0.4c1.8,0,3.2,1.5,3.2,3.2
	c0,1.5-1.1,2.8-2.5,3.1c-0.8-1.9-2.6-3.3-4.7-3.4c-0.4-1.5-1.5-2.8-2.9-3.5C18.7,8.8,20,7.8,21.5,7.8z M9,14.8
	c0.6,0,1.3,0.1,1.8,0.4c0.1,0.1,0.3,0.1,0.5,0c0.1-0.1,0.2-0.2,0.2-0.4c0.3-2.3,2.2-4,4.4-4c2.1,0,4,1.5,4.4,3.6
	c0,0.2,0.3,0.4,0.5,0.4c0,0,0.1,0,0.1,0c2.4,0,4.5,2.1,4.5,4.6S23.4,24,21,24H9c-2.4,0-4.5-2.1-4.5-4.6S6.6,14.8,9,14.8z"/>
</svg>
