<?xml version="1.0" encoding="utf-8"?>
<!-- Generator: Adobe Illustrator 21.0.0, SVG Export Plug-In . SVG Version: 6.00 Build 0)  -->
<svg version="1.1" id="Layer_1" xmlns="http://www.w3.org/2000/svg" xmlns:xlink="http://www.w3.org/1999/xlink" x="0px" y="0px"
	 viewBox="0 0 32 32" style="enable-background:new 0 0 32 32;" xml:space="preserve">
<style type="text/css">
	.st0{fill:#231F20;}
</style>
<path class="st0" d="M19.5,7.5C19.8,7.5,20,7.3,20,7V5c0-0.3-0.2-0.5-0.5-0.5C19.2,4.5,19,4.7,19,5v2C19,7.3,19.2,7.5,19.5,7.5z"/>
<path class="st0" d="M30,15h-2c-0.3,0-0.5,0.2-0.5,0.5S27.7,16,28,16h2c0.3,0,0.5-0.2,0.5-0.5S30.3,15,30,15z"/>
<path class="st0" d="M19.2,28c3,0,5.5-2.6,5.5-5.6c0-1.3-0.5-2.5-1.2-3.4c1.2-1.1,2-2.7,2-4.3c0-3.2-2.6-5.8-5.8-5.8
	c-2.5,0-4.7,1.6-5.5,4c-2.6,0-4.7,1.8-5.3,4.3c-0.5-0.2-1.1-0.3-1.7-0.3c-3,0-5.5,2.6-5.5,5.6c0,3.1,2.5,5.6,5.5,5.6H19.2z
	 M19.7,9.7c2.7,0,4.8,2.2,4.8,4.8c0,1.4-0.6,2.7-1.6,3.6c-0.9-0.8-2.1-1.4-3.3-1.5c-0.6-2-2.3-3.5-4.3-3.9
	C15.9,11,17.7,9.7,19.7,9.7z M2.8,22.4c0-2.5,2.1-4.6,4.5-4.6c0.6,0,1.3,0.1,1.8,0.4c0.1,0.1,0.3,0.1,0.5,0c0.1-0.1,0.2-0.2,0.2-0.4
	c0.3-2.3,2.2-4,4.4-4c2.1,0,4,1.5,4.4,3.6c0,0.2,0.3,0.4,0.5,0.4c0,0,0.1,0,0.1,0c2.4,0,4.5,2.1,4.5,4.6c0,2.5-2.1,4.6-4.5,4.6h-12
	C4.8,27,2.8,24.9,2.8,22.4z"/>
<path class="st0" d="M13.4,9.8c0.1,0.1,0.2,0.1,0.4,0.1c0.1,0,0.3,0,0.4-0.1c0.2-0.2,0.2-0.5,0-0.7l-1.4-1.4c-0.2-0.2-0.5-0.2-0.7,0
	c-0.2,0.2-0.2,0.5,0,0.7L13.4,9.8z"/>
<path class="st0" d="M25.8,9.9c0.1,0,0.3,0,0.4-0.1l1.4-1.4c0.2-0.2,0.2-0.5,0-0.7c-0.2-0.2-0.5-0.2-0.7,0l-1.4,1.4
	c-0.2,0.2-0.2,0.5,0,0.7C25.5,9.9,25.6,9.9,25.8,9.9z"/>
<path class="st0" d="M26,20.4l1.4,1.4c0.1,0.1,0.2,0.1,0.4,0.1c0.1,0,0.3,0,0.4-0.1c0.2-0.2,0.2-0.5,0-0.7l-1.4-1.4
	c-0.2-0.2-0.5-0.2-0.7,0C25.8,19.9,25.8,20.2,26,20.4z"/>
</svg>
