<?xml version="1.0" encoding="utf-8"?>
<!-- Generator: Adobe Illustrator 21.0.0, SVG Export Plug-In . SVG Version: 6.00 Build 0)  -->
<svg version="1.1" id="Layer_1" xmlns="http://www.w3.org/2000/svg" xmlns:xlink="http://www.w3.org/1999/xlink" x="0px" y="0px"
	 viewBox="0 0 32 32" style="enable-background:new 0 0 32 32;" xml:space="preserve">
<style type="text/css">
	.st0{fill:#231F20;}
</style>
<g>
	<path class="st0" d="M16,23.7c4.3,0,7.7-3.5,7.7-7.7S20.3,8.3,16,8.3S8.3,11.7,8.3,16S11.7,23.7,16,23.7z M16,9.2
		c3.7,0,6.8,3,6.8,6.8s-3,6.8-6.8,6.8s-6.8-3-6.8-6.8S12.3,9.2,16,9.2z"/>
	<path class="st0" d="M16,5.8c0.3,0,0.5-0.2,0.5-0.5V1.5C16.5,1.2,16.3,1,16,1c-0.3,0-0.5,0.2-0.5,0.5v3.9C15.5,5.6,15.7,5.8,16,5.8
		z"/>
	<path class="st0" d="M16.5,30.5v-3.9c0-0.3-0.2-0.5-0.5-0.5c-0.3,0-0.5,0.2-0.5,0.5v3.9c0,0.3,0.2,0.5,0.5,0.5
		C16.3,31,16.5,30.8,16.5,30.5z"/>
	<path class="st0" d="M26.2,16c0,0.3,0.2,0.5,0.5,0.5h3.9c0.3,0,0.5-0.2,0.5-0.5c0-0.3-0.2-0.5-0.5-0.5h-3.9
		C26.4,15.5,26.2,15.7,26.2,16z"/>
	<path class="st0" d="M1.5,16.5h3.9c0.3,0,0.5-0.2,0.5-0.5c0-0.3-0.2-0.5-0.5-0.5H1.5C1.2,15.5,1,15.7,1,16
		C1,16.3,1.2,16.5,1.5,16.5z"/>
	<path class="st0" d="M23.2,8.8c0.2,0.2,0.5,0.2,0.7,0l2.7-2.7c0.2-0.2,0.2-0.5,0-0.7s-0.5-0.2-0.7,0l-2.7,2.7
		C23,8.3,23,8.6,23.2,8.8z"/>
	<path class="st0" d="M6.1,26.6l2.7-2.7c0.2-0.2,0.2-0.5,0-0.7c-0.2-0.2-0.5-0.2-0.7,0l-2.7,2.7c-0.2,0.2-0.2,0.5,0,0.7
		S5.9,26.8,6.1,26.6z"/>
	<path class="st0" d="M23.2,23.2c-0.2,0.2-0.2,0.5,0,0.7l2.7,2.7c0.2,0.2,0.5,0.2,0.7,0s0.2-0.5,0-0.7l-2.7-2.7
		C23.7,23,23.4,23,23.2,23.2z"/>
	<path class="st0" d="M5.4,6.1l2.7,2.7C8.3,9,8.6,9,8.8,8.8C9,8.6,9,8.3,8.8,8.1L6.1,5.4c-0.2-0.2-0.5-0.2-0.7,0S5.2,5.9,5.4,6.1z"
		/>
</g>
</svg>
