<?xml version="1.0" encoding="utf-8"?>
<!-- Generator: Adobe Illustrator 21.0.0, SVG Export Plug-In . SVG Version: 6.00 Build 0)  -->
<svg version="1.1" id="Layer_1" xmlns="http://www.w3.org/2000/svg" xmlns:xlink="http://www.w3.org/1999/xlink" x="0px" y="0px"
	 viewBox="0 0 32 32" style="enable-background:new 0 0 32 32;" xml:space="preserve">
<style type="text/css">
	.st0{fill:#231F20;}
</style>
<path class="st0" d="M10.5,21h12c3.1,0,5.5-3.2,5.5-6.1c0-2.8-2.2-5.9-5.2-6.1c-0.7-2.3-2.8-4-5.3-4c-2.6,0-4.8,1.8-5.3,4.3
	c-0.5-0.2-1.1-0.3-1.7-0.3C7.4,8.8,5,12,5,14.9S7.4,21,10.5,21z M10.5,9.8c0.6,0,1.3,0.1,1.8,0.4c0.1,0.1,0.3,0.1,0.5,0
	c0.1-0.1,0.2-0.2,0.2-0.4c0.3-2.3,2.2-4,4.4-4c2.1,0,4,1.5,4.4,3.6c0,0.2,0.3,0.4,0.5,0.4c0,0,0.1,0,0.1,0c2.5,0,4.5,2.8,4.5,5.1
	S25,20,22.5,20h-12C8,20,6,17.2,6,14.9S8,9.8,10.5,9.8z"/>
<path class="st0" d="M11.5,23v4c0,0.3,0.2,0.5,0.5,0.5c0.3,0,0.5-0.2,0.5-0.5v-4c0-0.3-0.2-0.5-0.5-0.5C11.7,22.5,11.5,22.7,11.5,23
	z"/>
<path class="st0" d="M17.5,23v4c0,0.3,0.2,0.5,0.5,0.5c0.3,0,0.5-0.2,0.5-0.5v-4c0-0.3-0.2-0.5-0.5-0.5C17.7,22.5,17.5,22.7,17.5,23
	z"/>
<path class="st0" d="M14.5,23v2c0,0.3,0.2,0.5,0.5,0.5c0.3,0,0.5-0.2,0.5-0.5v-2c0-0.3-0.2-0.5-0.5-0.5C14.7,22.5,14.5,22.7,14.5,23
	z"/>
<path class="st0" d="M20.5,23v2c0,0.3,0.2,0.5,0.5,0.5c0.3,0,0.5-0.2,0.5-0.5v-2c0-0.3-0.2-0.5-0.5-0.5C20.7,22.5,20.5,22.7,20.5,23
	z"/>
</svg>
