<?xml version="1.0" encoding="utf-8"?>
<!-- Generator: Adobe Illustrator 21.0.0, SVG Export Plug-In . SVG Version: 6.00 Build 0)  -->
<svg version="1.1" id="Layer_1" xmlns="http://www.w3.org/2000/svg" xmlns:xlink="http://www.w3.org/1999/xlink" x="0px" y="0px"
	 viewBox="0 0 32 32" style="enable-background:new 0 0 32 32;" xml:space="preserve">
<style type="text/css">
	.st0{fill:#231F20;}
</style>
<path class="st0" d="M17.8,24c1.5,0,3-0.4,4.3-1.2c0.1-0.1,0.2-0.3,0.2-0.4c0-0.2-0.1-0.3-0.2-0.4c-2-1.3-3.3-3.5-3.3-5.9
	s1.2-4.6,3.3-5.9c0.1-0.1,0.2-0.3,0.2-0.4c0-0.2-0.1-0.3-0.2-0.4C20.7,8.4,19.3,8,17.8,8c-4.4,0-8,3.6-8,8S13.3,24,17.8,24z M17.8,9
	c1.1,0,2.1,0.2,3.1,0.7c-1.9,1.5-3.1,3.8-3.1,6.3s1.1,4.8,3.1,6.3c-1,0.5-2,0.7-3.1,0.7c-3.9,0-7-3.1-7-7S13.9,9,17.8,9z"/>
</svg>
