<?xml version="1.0" encoding="utf-8"?>
<!-- Generator: Adobe Illustrator 21.0.0, SVG Export Plug-In . SVG Version: 6.00 Build 0)  -->
<svg version="1.1" id="Layer_1" xmlns="http://www.w3.org/2000/svg" xmlns:xlink="http://www.w3.org/1999/xlink" x="0px" y="0px"
	 viewBox="0 0 32 32" style="enable-background:new 0 0 32 32;" xml:space="preserve">
<style type="text/css">
	.st0{fill:#231F20;}
</style>
<path class="st0" d="M9.9,21h12c2.9,0,5.5-2.8,5.5-6c0-3.1-2.4-5.8-5.2-6c-0.7-2.3-2.8-4-5.3-4c-2.6,0-4.8,1.8-5.3,4.3
	C11,9.1,10.5,9,9.9,9C7,9,4.4,11.8,4.4,15S7,21,9.9,21z M9.9,10c0.6,0,1.3,0.1,1.8,0.4c0.1,0.1,0.3,0.1,0.5,0
	c0.1-0.1,0.2-0.2,0.2-0.4c0.3-2.3,2.2-4,4.4-4c2.1,0,4,1.5,4.4,3.6c0,0.2,0.3,0.4,0.5,0.4c0,0,0.1,0,0.1,0c2.6,0,4.5,2.6,4.5,5
	s-1.9,5-4.5,5h-12c-2.6,0-4.5-2.6-4.5-5S7.3,10,9.9,10z"/>
<circle class="st0" cx="12.9" cy="25" r="0.5"/>
<circle class="st0" cx="17.9" cy="25" r="0.5"/>
<circle class="st0" cx="15.9" cy="23" r="0.5"/>
<circle class="st0" cx="20.9" cy="23" r="0.5"/>
<circle class="st0" cx="14.9" cy="27" r="0.5"/>
<circle class="st0" cx="10.9" cy="23" r="0.5"/>
</svg>
